<svg width="100" height="100" viewBox="0 0 100 100" fill="none" xmlns="http://www.w3.org/2000/svg">
<g filter="url(#filter0_d_2175_231)">
<rect x="10" y="10" width="80" height="80" rx="40" fill="white" shape-rendering="crispEdges"/>
<rect x="20" y="20" width="60" height="60" rx="30" fill="#333333"/>
<g clip-path="url(#clip0_2175_231)">
<path d="M34.2461 51.5841H42.918C43.1889 56.5983 44.7872 61.4505 47.5493 65.6441C44.0896 65.1007 40.9075 63.4261 38.5005 60.8822C36.0936 58.3383 34.5975 55.0685 34.2461 51.5841ZM34.2461 48.4174C34.5975 44.933 36.0936 41.6632 38.5005 39.1193C40.9075 36.5754 44.0896 34.9009 47.5493 34.3574C44.7872 38.5511 43.1889 43.4032 42.918 48.4174H34.2461ZM65.7544 48.4174H57.0825C56.8116 43.4032 55.2133 38.5511 52.4513 34.3574C55.9109 34.9009 59.093 36.5754 61.5 39.1193C63.9069 41.6632 65.4031 44.933 65.7544 48.4174ZM65.7544 51.5841C65.4031 55.0685 63.9069 58.3383 61.5 60.8822C59.093 63.4261 55.9109 65.1007 52.4513 65.6441C55.2133 61.4505 56.8116 56.5983 57.0825 51.5841H65.756H65.7544ZM46.0894 51.5841H53.9111C53.6505 55.8583 52.3045 59.9954 50.0003 63.6048C47.696 59.9954 46.35 55.8583 46.0894 51.5841ZM46.0894 48.4174C46.35 44.1432 47.696 40.0061 50.0003 36.3968C52.3045 40.0061 53.6505 44.1432 53.9111 48.4174H46.0894Z" fill="#FECC01"/>
</g>
</g>
<defs>
<filter id="filter0_d_2175_231" x="0" y="0" width="100" height="100" filterUnits="userSpaceOnUse" color-interpolation-filters="sRGB">
<feFlood flood-opacity="0" result="BackgroundImageFix"/>
<feColorMatrix in="SourceAlpha" type="matrix" values="0 0 0 0 0 0 0 0 0 0 0 0 0 0 0 0 0 0 127 0" result="hardAlpha"/>
<feOffset/>
<feGaussianBlur stdDeviation="5"/>
<feComposite in2="hardAlpha" operator="out"/>
<feColorMatrix type="matrix" values="0 0 0 0 0 0 0 0 0 0 0 0 0 0 0 0 0 0 0.25 0"/>
<feBlend mode="normal" in2="BackgroundImageFix" result="effect1_dropShadow_2175_231"/>
<feBlend mode="normal" in="SourceGraphic" in2="effect1_dropShadow_2175_231" result="shape"/>
</filter>
<clipPath id="clip0_2175_231">
<rect width="38" height="38" fill="white" transform="translate(31 31)"/>
</clipPath>
</defs>
</svg>
